<?xml version="1.0" encoding="utf-8"?>
<!-- Generator: Adobe Illustrator 23.0.3, SVG Export Plug-In . SVG Version: 6.00 Build 0)  -->
<svg version="1.1" id="Calque_1" xmlns="http://www.w3.org/2000/svg" xmlns:xlink="http://www.w3.org/1999/xlink" x="0px" y="0px"
	 viewBox="0 0 1851.9 614.3" style="enable-background:new 0 0 1851.9 614.3;" xml:space="preserve">
<style type="text/css">
	.st0{fill:#FFFFFF;}
</style>
<g>
	<g>
		<path class="st0" d="M687.8,443.2c0.6,0,0.8,0.3,0.7,0.8l-5.5,34.8h18.4c0.6,0,0.8,0.3,0.7,0.8l-1,6c-0.1,0.6-0.4,0.8-1,0.8h-26.3
			c-0.6,0-0.8-0.3-0.7-0.9l6.6-41.6c0.1-0.6,0.4-0.8,1-0.8H687.8z"/>
		<path class="st0" d="M743,464.9c-2.7,16.9-7.3,21.9-21.6,21.9c-14.3,0-17.4-5-14.7-21.9c2.7-17,7.3-22.1,21.6-22.1
			C742.6,442.9,745.7,447.9,743,464.9z M715.6,464.9c-1.7,10.9-0.7,14.2,7,14.2c7.7,0,9.7-3.4,11.5-14.2c1.7-11,0.8-14.4-6.9-14.4
			C719.4,450.5,717.3,454,715.6,464.9z"/>
		<path class="st0" d="M780.5,443.7c0.8,0.2,1.2,0.6,1.1,1.5l-0.7,4.5c-0.1,0.6-0.4,0.8-1,0.8h-11.4c-7.7,0-9.6,3.4-11.3,14.3
			c-1.8,10.9-0.9,14.3,6.8,14.3h11.5c0.6,0,0.8,0.3,0.7,0.8l-0.7,4.5c-0.1,0.9-0.6,1.2-1.5,1.5c-2.9,0.6-6.3,0.8-11.2,0.8
			c-14.3,0-17.1-5-14.4-22c2.7-17,7.2-21.9,21.4-21.9C774.5,442.9,777.8,443.2,780.5,443.7z"/>
		<path class="st0" d="M811.8,449.6l4.1,36c0,0.7-0.3,0.9-0.9,0.9H808c-0.6,0-0.6-0.2-0.6-0.9L806,474H791l-5.1,11.6
			c-0.3,0.7-0.4,0.9-1,0.9h-7.1c-0.6,0-0.8-0.2-0.6-0.9l15.7-36c2.7-6.1,3.9-6.7,10.4-6.7C810.1,442.9,811.1,443.5,811.8,449.6z
			 M800.5,451.9l-6.4,14.8h11l-1.7-14.8c-0.2-1.3-0.2-1.6-1.3-1.6C801.3,450.3,801.1,450.5,800.5,451.9z"/>
		<path class="st0" d="M853,443.2c0.6,0,0.8,0.3,0.7,0.8l-1,6c-0.1,0.6-0.4,0.8-1,0.8h-11.7l-5.5,34.8c-0.1,0.6-0.4,0.9-1,0.9h-7.1
			c-0.6,0-0.8-0.3-0.7-0.9l5.5-34.8h-11.7c-0.6,0-0.8-0.3-0.7-0.8l0.9-6c0.1-0.6,0.4-0.8,1-0.8H853z"/>
		<path class="st0" d="M866.6,443.2c0.6,0,0.8,0.3,0.7,0.9l-6.6,41.5c-0.1,0.6-0.4,0.9-1,0.9h-7.1c-0.6,0-0.8-0.3-0.7-0.9l6.5-41.5
			c0.1-0.6,0.4-0.9,1-0.9H866.6z"/>
		<path class="st0" d="M906.8,464.9c-2.7,16.9-7.3,21.9-21.6,21.9c-14.3,0-17.4-5-14.7-21.9c2.7-17,7.3-22.1,21.6-22.1
			C906.4,442.9,909.5,447.9,906.8,464.9z M879.4,464.9c-1.7,10.9-0.7,14.2,7,14.2s9.7-3.4,11.5-14.2c1.7-11,0.8-14.4-6.9-14.4
			C883.2,450.5,881.2,454,879.4,464.9z"/>
		<path class="st0" d="M952,443.2c0.6,0,0.8,0.3,0.7,0.9l-6.6,41.5c-0.1,0.6-0.4,0.9-1,0.9h-5.2c-1.3,0-2-0.3-2.6-1.4l-14.1-26.9
			l-4.4,27.4c-0.1,0.6-0.4,0.9-0.9,0.9h-7.1c-0.6,0-0.8-0.3-0.7-0.9l6.6-41.5c0.1-0.6,0.4-0.9,1-0.9h5.5c2.2,0,2.5,0.5,3.2,1.8
			l13.3,25.4l4.2-26.3c0.1-0.6,0.4-0.9,0.9-0.9H952z"/>
		<path class="st0" d="M1004,464.9c-2.5,15.5-8.5,21.9-21.6,21.9c-5.5,0-11.3-0.2-16.2-0.6c-0.6-0.1-0.8-0.2-0.7-0.7l6.5-41.3
			c0.1-0.6,0.3-0.7,1-0.8c5.1-0.4,10.9-0.6,16.3-0.6C1002.5,442.9,1006.5,449.4,1004,464.9z M979.9,450.5l-4.5,28.6h8.2
			c6.8,0,10-4.3,11.5-14.3c1.7-10.7-0.3-14.3-7.4-14.3H979.9z"/>
		<path class="st0" d="M1042.7,443.2c0.6,0,0.8,0.3,0.8,0.8l-0.9,6c-0.1,0.6-0.4,0.8-1,0.8h-20.1l-1.7,10.6h18.4
			c0.6,0,0.8,0.3,0.8,0.8l-0.9,5.7c-0.1,0.6-0.5,0.8-1,0.8h-18.4l-1.6,10h20.1c0.6,0,0.8,0.3,0.7,0.8l-1,6c-0.1,0.6-0.4,0.8-1,0.8
			h-28c-0.6,0-0.8-0.3-0.7-0.9l6.6-41.6c0.1-0.6,0.4-0.8,1-0.8H1042.7z"/>
		<path class="st0" d="M1093.5,443.2c0.6,0,0.8,0.2,0.6,0.9l-15,36c-2.5,6-3.6,6.7-10.4,6.7c-6.5,0-7.4-0.6-8.1-6.7l-3.8-36
			c-0.1-0.7,0.2-0.9,0.8-0.9h7.2c0.5,0,0.5,0.2,0.6,0.9l3.4,33.9c0.2,1.3,0.3,1.7,1,1.7c0.9,0,1.1-0.4,1.7-1.7l14-33.9
			c0.2-0.7,0.3-0.9,0.8-0.9H1093.5z"/>
		<path class="st0" d="M1127.9,443.2c0.6,0,0.8,0.3,0.8,0.8l-0.9,6c-0.1,0.6-0.4,0.8-1,0.8h-20.1l-1.7,10.6h18.4
			c0.6,0,0.8,0.3,0.8,0.8l-0.9,5.7c-0.1,0.6-0.5,0.8-1,0.8h-18.4l-1.6,10h20.1c0.6,0,0.8,0.3,0.7,0.8l-1,6c-0.1,0.6-0.4,0.8-1,0.8
			h-28c-0.6,0-0.8-0.3-0.7-0.9l6.6-41.6c0.1-0.6,0.4-0.8,1-0.8H1127.9z"/>
		<path class="st0" d="M1170.5,443.2c0.6,0,0.8,0.3,0.7,0.9l-6.6,41.5c-0.1,0.6-0.4,0.9-0.9,0.9h-7.1c-0.6,0-0.8-0.3-0.7-0.9
			l2.7-16.9H1140l-2.7,16.9c-0.1,0.6-0.4,0.9-0.9,0.9h-7.1c-0.6,0-0.8-0.3-0.7-0.9l6.6-41.5c0.1-0.6,0.4-0.9,1-0.9h7.1
			c0.6,0,0.8,0.3,0.7,0.9l-2.7,16.9h18.5l2.7-16.9c0.1-0.6,0.4-0.9,0.9-0.9H1170.5z"/>
		<path class="st0" d="M1187.2,443.2c0.6,0,0.8,0.3,0.7,0.9l-6.6,41.5c-0.1,0.6-0.4,0.9-1,0.9h-7.1c-0.6,0-0.8-0.3-0.7-0.9l6.5-41.5
			c0.1-0.6,0.4-0.9,0.9-0.9H1187.2z"/>
		<path class="st0" d="M1223.5,443.7c0.8,0.2,1.2,0.6,1.1,1.5l-0.7,4.5c-0.1,0.6-0.4,0.8-1,0.8h-11.4c-7.7,0-9.6,3.4-11.3,14.3
			c-1.8,10.9-0.9,14.3,6.8,14.3h11.5c0.6,0,0.8,0.3,0.7,0.8l-0.7,4.5c-0.1,0.9-0.6,1.2-1.5,1.5c-2.9,0.6-6.3,0.8-11.2,0.8
			c-14.3,0-17.1-5-14.4-22c2.7-17,7.2-21.9,21.4-21.9C1217.5,442.9,1220.9,443.2,1223.5,443.7z"/>
		<path class="st0" d="M1264.8,443.2c0.6,0,0.8,0.2,0.7,0.8l-3.3,20.9c-2.7,17.5-7,21.9-21.2,21.9c-14.2,0-17-4.4-14.3-21.9
			l3.4-20.9c0.1-0.6,0.3-0.8,1-0.8h7.1c0.6,0,0.8,0.2,0.7,0.8l-3.3,20.9c-1.8,11.4-0.5,14.2,6.7,14.2c7.1,0,9.3-2.9,11.1-14.2
			l3.3-20.9c0.1-0.6,0.3-0.8,1-0.8H1264.8z"/>
		<path class="st0" d="M1281.1,443.2c0.6,0,0.8,0.3,0.7,0.8l-5.5,34.8h18.4c0.6,0,0.8,0.3,0.7,0.8l-1,6c-0.1,0.6-0.4,0.8-1,0.8
			h-26.3c-0.6,0-0.8-0.3-0.7-0.9l6.6-41.6c0.1-0.6,0.4-0.8,1-0.8H1281.1z"/>
		<path class="st0" d="M1334.8,443.2c0.6,0,0.8,0.3,0.8,0.8l-0.9,6c-0.1,0.6-0.4,0.8-1,0.8h-20.1l-1.7,10.6h18.4
			c0.6,0,0.8,0.3,0.8,0.8l-1,5.7c-0.1,0.6-0.4,0.8-1,0.8h-18.4l-1.6,10h20.1c0.6,0,0.8,0.3,0.7,0.8l-1,6c-0.1,0.6-0.4,0.8-1,0.8h-28
			c-0.6,0-0.8-0.3-0.7-0.9l6.6-41.6c0.1-0.6,0.4-0.8,0.9-0.8H1334.8z"/>
		<path class="st0" d="M1368.1,444c0.7,0.2,0.8,0.6,0.8,1l-0.7,4.6c-0.1,0.7-0.5,1-1.2,1h-13.2c-3.4,0-5.4,1.2-5.7,3.6l-0.2,0.8
			c-0.3,2,0.3,3.2,2.6,4.2l9.9,4.1c5,2.1,7,4.8,6,11.2l-0.3,1.6c-1.3,8.3-8.1,10.7-17.8,10.7c-4.1,0-8.5-0.3-13.6-1.2
			c-0.7-0.2-1-0.5-0.8-1.2l0.7-4.2c0.1-0.7,0.5-1.1,1.3-1.1h15.8c3.4,0,5.2-1,5.6-3.5l0.1-0.7c0.4-2.4-0.5-3.5-3.2-4.6l-10.2-4.1
			c-4.4-1.7-5.9-4.9-4.9-11.4l0.2-1.2c1.3-8.3,7.4-10.7,17.4-10.7C1361.2,442.9,1363.8,443.2,1368.1,444z"/>
		<path class="st0" d="M1410.8,443.7c0.8,0.2,1.2,0.5,1.1,1.3l-0.7,4.8c-0.1,0.6-0.4,0.7-1,0.7h-8.1c-5,0-7.1,0.7-7.7,4.7l-0.1,0.8
			c-0.6,3.9,0.4,5.3,5.4,5.3h16.1c0.7,0,0.9,0.3,0.8,0.8l-0.6,3.9c-0.1,0.6-0.4,0.7-1.1,0.9l-3.9,0.9l-1.5,9.2
			c-0.4,2.5,0.4,2.9,2.9,2.9h1.7c0.7,0,0.9,0.3,0.8,0.9l-0.7,4.4c-0.2,0.7-0.5,1-1.1,1.1c-1.3,0.3-3.1,0.5-4.3,0.5
			c-2.1,0-4.7,0.1-6.1-1.7c-2.9,1.3-5.9,1.7-8.7,1.7c-7.4,0-13.2-2-11.7-11.1l0.4-2.5c0.5-3.3,1.9-7.3,6.8-8.4
			c-4.5-1.1-4.7-5.1-4.2-8.5l0.4-2.5c1.4-9.1,7.6-10.9,16.5-10.9C1404.4,442.9,1408.3,443.2,1410.8,443.7z M1398,468.1
			c-4.6,0-5.9,1.5-6.5,5.3l-0.1,0.8c-0.6,3.8,1.2,4.9,5.4,4.9c1.9,0,3.2-0.2,5-0.9l1.6-10.1H1398z"/>
		<path class="st0" d="M1471.7,443.2c0.6,0,0.8,0.2,0.7,0.8l-3.3,20.9c-2.7,17.5-7,21.9-21.2,21.9s-17-4.4-14.3-21.9l3.4-20.9
			c0.1-0.6,0.3-0.8,1-0.8h7.1c0.6,0,0.8,0.2,0.7,0.8l-3.3,20.9c-1.8,11.4-0.5,14.2,6.7,14.2c7.1,0,9.3-2.9,11.1-14.2l3.3-20.9
			c0.1-0.6,0.3-0.8,1-0.8H1471.7z"/>
		<path class="st0" d="M1510,443.2c0.6,0,0.8,0.3,0.7,0.8l-1,6c-0.1,0.6-0.4,0.8-1,0.8h-11.7l-5.5,34.8c-0.1,0.6-0.4,0.9-1,0.9h-7.1
			c-0.6,0-0.8-0.3-0.7-0.9l5.5-34.8h-11.7c-0.6,0-0.8-0.3-0.7-0.8l0.9-6c0.1-0.6,0.4-0.8,1-0.8H1510z"/>
		<path class="st0" d="M1523.6,443.2c0.6,0,0.8,0.3,0.7,0.9l-6.6,41.5c-0.1,0.6-0.4,0.9-1,0.9h-7.1c-0.6,0-0.8-0.3-0.7-0.9l6.5-41.5
			c0.1-0.6,0.4-0.9,1-0.9H1523.6z"/>
		<path class="st0" d="M1540.3,443.2c0.6,0,0.8,0.3,0.7,0.8l-5.5,34.8h18.4c0.6,0,0.8,0.3,0.7,0.8l-1,6c-0.1,0.6-0.4,0.8-1,0.8
			h-26.3c-0.6,0-0.8-0.3-0.7-0.9l6.6-41.6c0.1-0.6,0.4-0.8,1-0.8H1540.3z"/>
		<path class="st0" d="M1573,443.2c0.6,0,0.8,0.3,0.7,0.9l-6.6,41.5c-0.1,0.6-0.4,0.9-1,0.9h-7.1c-0.6,0-0.8-0.3-0.7-0.9l6.5-41.5
			c0.1-0.6,0.4-0.9,1-0.9H1573z"/>
		<path class="st0" d="M1611.6,443.2c0.6,0,0.8,0.3,0.7,0.8l-1,6c-0.1,0.6-0.4,0.8-1,0.8h-11.7l-5.5,34.8c-0.1,0.6-0.4,0.9-1,0.9
			h-7.1c-0.6,0-0.8-0.3-0.7-0.9l5.5-34.8h-11.7c-0.6,0-0.8-0.3-0.7-0.8l0.9-6c0.1-0.6,0.4-0.8,1-0.8H1611.6z"/>
		<path class="st0" d="M1637.5,449.6l4.1,36c0,0.7-0.3,0.9-0.9,0.9h-7.1c-0.6,0-0.6-0.2-0.6-0.9l-1.4-11.6h-14.9l-5.1,11.6
			c-0.3,0.7-0.4,0.9-1,0.9h-7.1c-0.6,0-0.8-0.2-0.6-0.9l15.7-36c2.7-6.1,3.9-6.7,10.4-6.7C1635.8,442.9,1636.8,443.5,1637.5,449.6z
			 M1626.2,451.9l-6.4,14.8h11l-1.7-14.8c-0.2-1.3-0.2-1.6-1.3-1.6C1626.9,450.3,1626.8,450.5,1626.2,451.9z"/>
		<path class="st0" d="M1660.8,443.2c0.6,0,0.8,0.3,0.7,0.9l-6.6,41.5c-0.1,0.6-0.4,0.9-1,0.9h-7.1c-0.6,0-0.8-0.3-0.7-0.9l6.5-41.5
			c0.1-0.6,0.4-0.9,0.9-0.9H1660.8z"/>
		<path class="st0" d="M1699.5,457.3c-1.3,8.5-4.1,11.8-10.6,13l7.1,15.1c0.3,0.6,0,1.1-0.8,1.1h-7.1c-1.3,0-1.6-0.4-2.1-1.2
			l-6.8-14.4h-5.2l-2.4,14.8c-0.1,0.7-0.3,0.9-0.9,0.9h-7.1c-0.7,0-0.8-0.2-0.7-0.9l6.5-41.4c0.1-0.6,0.3-0.7,1-0.8
			c5.1-0.4,10.5-0.6,15-0.6C1697.6,442.9,1701.2,446.1,1699.5,457.3z M1677.2,450.5l-2.2,13.5h6c6.7,0,8.6-0.9,9.5-6.6
			c0.9-5.6-0.7-6.9-7.3-6.9H1677.2z"/>
		<path class="st0" d="M1737.1,443.2c0.6,0,0.8,0.3,0.8,0.8l-0.9,6c-0.1,0.6-0.4,0.8-1,0.8h-20.1l-1.7,10.6h18.4
			c0.6,0,0.8,0.3,0.8,0.8l-0.9,5.7c-0.1,0.6-0.5,0.8-1,0.8h-18.4l-1.6,10h20.1c0.6,0,0.8,0.3,0.7,0.8l-1,6c-0.1,0.6-0.4,0.8-1,0.8
			h-28c-0.6,0-0.8-0.3-0.7-0.9l6.6-41.6c0.1-0.6,0.4-0.8,1-0.8H1737.1z"/>
		<path class="st0" d="M1770.4,444c0.7,0.2,0.8,0.6,0.8,1l-0.7,4.6c-0.1,0.7-0.5,1-1.2,1H1756c-3.4,0-5.4,1.2-5.7,3.6l-0.2,0.8
			c-0.3,2,0.3,3.2,2.6,4.2l9.9,4.1c5,2.1,7,4.8,6,11.2l-0.3,1.6c-1.3,8.3-8.1,10.7-17.8,10.7c-4.1,0-8.5-0.3-13.6-1.2
			c-0.7-0.2-1-0.5-0.8-1.2l0.7-4.2c0.1-0.7,0.5-1.1,1.3-1.1h15.8c3.4,0,5.2-1,5.6-3.5l0.1-0.7c0.4-2.4-0.5-3.5-3.2-4.6l-10.2-4.1
			c-4.4-1.7-5.9-4.9-4.9-11.4l0.2-1.2c1.3-8.3,7.4-10.7,17.4-10.7C1763.5,442.9,1766.2,443.2,1770.4,444z"/>
	</g>
</g>
<g>
	<path class="st0" d="M324.3,307.6c42.7,0,55.2-20.7,65.2-83.7c10.3-63.8,4.3-84.4-38.5-84.4c-43.1,0-55.2,20.7-65.5,84.4
		C275.5,287,281.2,307.6,324.3,307.6z"/>
	<path class="st0" d="M1367.8,137.1c-3.9,0-5,1.1-6.8,5.7l-37.8,89h60.2l-10.3-89C1372.4,138.1,1372.4,137.1,1367.8,137.1z"/>
	<path class="st0" d="M826.9,137.1c-3.9,0-5,1.1-6.8,5.7l-37.8,89h60.2l-10.3-89C831.6,138.1,831.6,137.1,826.9,137.1z"/>
	<path class="st0" d="M1783.6,22.7H98.8c-14.9,0-27.6,11.2-30,26.5L18.1,374.8c-3,19.2,11.3,36.6,30,36.6h66.2
		c11,45.2,25.9,94.5,45.8,147.3l15.7,41.8l30.2-32.9c0.1-0.1,0.9-0.9,2.4-2.4c43.1-46.3,99.8-79.7,163.8-94c9.3-2.5,19-4.6,28.9-6.3
		c4.5-1.3,10.4-2.1,18.1-2.5c0,0,0.1,0,0.1,0c8.3-0.6,16.9-0.7,25.5-0.2c58.2,1.9,112.4,19.3,154.7,38c7.5,3.3,15.2,6.1,23.1,8.3
		l27.6,7.8c-54-42.5-132.9-89.4-133.3-89.6l-8.9-5.2c-0.8-0.4-9-5-23.2-10.1h1252.2c15.1,0,27.8-11.5,30-26.9l46.5-325.5
		C1816.4,39.9,1802.2,22.7,1783.6,22.7z M359.9,82.2c92.6,0,113.6,32.4,96.5,141.7C439,332.6,407.6,365,315,365
		c-92.6,0-113.3-32.4-96.2-141C236,114.6,267.3,82.2,359.9,82.2z M289.3,411.4c-19.6,6.4-39.1,14.6-58.4,24.7
		c-2.9-6.6-6.2-14.8-9.6-24.7H289.3z M501.8,432.7l92.5,54.4c-1.8-0.5-4.1-1.3-6.8-2.2c-44.2-23.9-94.8-37.4-148.5-37.4
		c-86.7,0-165.2,35.3-222,92.3c-13,11.2-20.1,18.8-20.4,19.2l-16,17.5l-8.4-22.2C66.1,272.8,104,95.8,105.6,88.4l1.3-5.9l5.1-3.2
		c20.8-13.3,59-16.1,87.4-16.1c8.1,0,13.3,0.2,13.3,0.2c8,0.4,14.2,7.1,13.9,15.1l-1,27.2c-0.4,10.2-10.9,16.9-20.3,12.8
		c0,0-1.2-0.5-4.6-0.5c-6.4,0-14.7,1.6-22.2,3.5c-3.7,0.9-6.2,4.3-6.2,8.1c1.9,207,38,296,53,324.2c53.9-30.5,109.1-45.9,164.2-45.9
		C457.2,407.9,500,431.7,501.8,432.7z M650.8,347.5c-1.4,7.1-5,9.6-11,11c-18.2,4.3-38.1,6.4-73,6.4c-93,0-112.2-32.4-95.1-141.7
		c17.5-109.3,47-141,139.6-141c35.3,0,54.5,2.5,71.2,6.4c5.7,1.8,8.5,3.9,7.5,11l-5.3,34.5c-0.7,3.6-2.9,5.3-6.4,5.3h-75.9
		c-43.1,0-53.8,19.9-63.7,83.7c-10.3,63.7-5.7,84.4,37,84.4h75.9c3.6,0,5,1.8,4.6,5.3L650.8,347.5z M914.9,363.2h-54.5
		c-3.2,0-3.6-1.8-3.9-5.7l-8.2-71.9h-89.4l-31,71.9c-1.8,3.9-2.5,5.7-5.7,5.7h-54.5c-3.6,0-5-1.8-3.6-5.7l100.4-232.2
		c17.5-39.9,25.6-43.1,71.2-43.1c46.3,0,53.4,3.6,58.1,43.1l26.7,232.2C920.6,361.4,918.5,363.2,914.9,363.2z M958.1,216.4
		l-27.4-7.2l-2.9-5l20.9-118.3l5.1-3.6h69.2l2.2,3.6l-62,127.7L958.1,216.4z M1194.7,347.5c-1.4,7.1-5,9.6-11,11
		c-18.2,4.3-38.1,6.4-73,6.4c-93,0-112.2-32.4-95.1-141.7c17.5-109.3,47-141,139.6-141c35.3,0,54.5,2.5,71.2,6.4
		c5.7,1.8,8.5,3.9,7.5,11l-5.3,34.5c-0.7,3.6-2.9,5.3-6.4,5.3h-75.9c-43.1,0-53.8,19.9-63.8,83.7c-10.3,63.7-5.7,84.4,37,84.4h75.9
		c3.6,0,5,1.8,4.6,5.3L1194.7,347.5z M1455.7,363.2h-54.5c-3.2,0-3.6-1.8-3.9-5.7l-8.2-71.9h-89.4l-31,71.9
		c-1.8,3.9-2.5,5.7-5.7,5.7h-54.5c-3.6,0-5-1.8-3.6-5.7l100.4-232.2c17.5-39.9,25.6-43.1,71.2-43.1c46.3,0,53.4,3.6,58.1,43.1
		l26.7,232.2C1461.4,361.4,1459.3,363.2,1455.7,363.2z M1727.1,175.9c-8.2,52.4-25.6,75.1-65.9,83.7l45.2,96.5
		c2.1,3.9,0,7.1-5.3,7.1h-55.6c-8.2,0-10.3-2.5-13.2-7.8l-43.4-91.5h-22.8l-14.6,93.7c-1.1,4.6-2.1,5.7-6.4,5.7h-55.2
		c-4.3,0-5.3-1.1-4.3-5.7l42-266c0.4-3.6,1.8-4.6,6.1-5c35.6-2.9,71.2-4.3,105.1-4.3C1715.7,82.2,1738.5,105.7,1727.1,175.9z"/>
	<path class="st0" d="M1622.8,139.5h-37l-11.8,75.1h36.7c34.2,0,44.9-7.1,49.5-36.7C1664.8,148.8,1656.6,139.5,1622.8,139.5z"/>
</g>
</svg>
